<?xml version="1.0" encoding="UTF-8"?>
<svg id="_Слой_1" data-name="Слой 1" xmlns="http://www.w3.org/2000/svg" viewBox="0 0 317.19 458.35">
  <defs>
    <style>
      .cls-1 {
        fill: #0070ff;
      }

      .cls-2 {
        fill: none;
      }

      .cls-3 {
        fill: #f4f6f9;
      }

      .cls-4 {
        fill: #016ffb;
      }
    </style>
  </defs>
  <path class="cls-2" d="M224.99,240.65c-5.12-9.06-13.75-13.29-23.61-13.24l-87.83.4c-7.88.04-14.9,5.2-18.84,11.96l-24.92,42.77c-1.75,3-9.27,15.97-10.37,17.16-.15.16-.21.04-.6-.65l13.2-28.1,19.75-41.16c2.9-6.04,7.59-10.06,13.44-13.08l.14-26.51,11.89.02.18,16.47c1.29.33,2.5.44,3.65-.08l.08-44.13c3.82.16,7.89-.95,11.34.33,2.57,1.21,4.25,4.66,6.39,6.41,2.05,1.68,1.75,3.79,1.78,6.04l.33,25.57c2.2.55,4.28.54,6.55.2l.03-66.68c2.63-4.3,7.27-7.24,9.23-11.93,1.98-4.74.68-10.73,1.53-15.8.91-5.47,1.02-10.64.85-16.21-.02-.57.59-1.14,1.32-1.21-.59,5.28.46,10.14.84,15.29l1.15,15.22c.16,2.13-.29,3.37,1.64,5.13,3.11,2.82,6.03,5.99,8.57,9.57l.11,45.25c2.59.53,5.47.63,8.29-.49l.31-19.3,15.15.07v42.86c1.38.75,2.9.58,4.29.12l.16-16.21,11.91.03.14,29.72c6.24,3.54,10.5,5.55,13.9,12.7l12.06,25.29,20.57,44.55c.29.62-1.21.85-1.52.7-.39-.19-.11-1.12-.4-1.63l-10.78-18.84c-1.11-1.95-7.5-12.67-7.69-13.05l-2.3-4.47c-1.07-2.08-2.26-3.57-3.29-5.68-2.58-5.26-5.64-10.14-8.61-15.39Z"/>
  <polygon class="cls-4" points="159.77 368.28 137.99 382.25 159.45 314.86 180.92 381.92 159.77 368.28"/>
  <path class="cls-1" d="M283.05,291.16l-42.84-96.36-12.97-28.2-17.63-37.52-29.73-62.2-39.5.07-13.87,27.85-40.19,83.33-1.9,4.01c-17.48,36.96-34.45,73.68-50.71,112.08l34.99,45.4,10.55,13.87,53.73,70.05,26.58,34.81,75.3-99.41,36.79-47.94c4-5.22,7.67-10.06,11.9-14.99,1.19-1.39.21-3.28-.49-4.86ZM218.38,345.9c-1.5,2.06-3.02,3.92-4.63,6.15l-16.23,22.56-37.89,51.34-64.13-86.64,10.15-16.93c4.75-7.92,8.93-15.68,14.56-23.15,2.3-1.08,4.81-3.27,7.71-3.26l63.71.09c3.08,0,6.83,2.6,8.47,5.05,8.31,12.41,15.56,24.98,23.27,37.95l-4.99,6.83ZM222.94,272.6v-9.71c.62.56,1.13,1.25,1.41,2.23.8,2.75.36,5.64-1.41,7.48ZM258.07,299.71c-.39-.19-.11-1.12-.4-1.63l-10.78-18.84c-1.11-1.95-7.5-12.67-7.69-13.05l-2.3-4.47c-1.07-2.08-2.26-3.57-3.29-5.68-2.58-5.26-5.64-10.14-8.61-15.39-5.12-9.06-13.75-13.29-23.61-13.24l-87.83.4c-7.88.04-14.9,5.2-18.84,11.96l-24.92,42.77c-1.75,3-9.27,15.97-10.37,17.16-.15.16-.21.04-.6-.65l13.2-28.1,19.75-41.16c2.9-6.04,7.59-10.06,13.44-13.08l.14-26.51,11.89.02.18,16.47c1.29.33,2.5.44,3.65-.08l.08-44.13c3.82.16,7.89-.95,11.34.33,2.57,1.21,4.25,4.66,6.39,6.41,2.05,1.68,1.75,3.79,1.78,6.04l.33,25.57c2.2.55,4.28.54,6.55.2l.03-66.68c2.63-4.3,7.27-7.24,9.23-11.93,1.98-4.74.68-10.73,1.53-15.8.91-5.47,1.02-10.64.85-16.21-.02-.57.59-1.14,1.32-1.21-.59,5.28.46,10.14.84,15.29l1.15,15.22c.16,2.13-.29,3.37,1.64,5.13,3.11,2.82,6.03,5.99,8.57,9.57l.11,45.25c2.59.53,5.47.63,8.29-.49l.31-19.3,15.15.07v42.86c1.38.75,2.9.58,4.29.12l.16-16.21,11.91.03.14,29.72c6.24,3.54,10.5,5.55,13.9,12.7l12.06,25.29,20.57,44.55c.29.62-1.21.85-1.52.7Z"/>
  <path class="cls-3" d="M132.81,274.28h-11.02s-.11,12.1-.11,12.1c-3.54,1.21-7.17.65-10.93.61-.23-4.61.39-8.52-.31-13.21-4.13-.07-8.06-.58-12.44.31-.11-3.65-.31-7.49,0-11.75l12.2-.23.51-13.17c3.72-.34,7.22-.33,10.72.08l.3,13.11,12.11.23c0,3.53,1.16,10.81-1.03,11.91Z"/>
  <path class="cls-3" d="M210.51,249.54c1.68,4.08,1.34,7.72-1.53,9.92s-6.72,1.7-8.85-1.21c-2.11-2.89-2.21-6.64.75-9.46,2.64-2.52,7.15-1.82,9.63.75Z"/>
  <path class="cls-3" d="M203.93,274.74c3.71-.9,6.83,2.22,7.52,5.26.85,3.8-1.49,7.29-4.95,8s-6.68-1.18-7.61-5c-.75-3.08,1.03-7.29,5.05-8.26Z"/>
  <path class="cls-3" d="M224.35,265.12c1.04,3.54,0,7.33-3.29,8.8-2.84,1.27-6.9,0-8.41-3.09-1.61-3.29-.16-7.16,2.87-9.23,1.84-1.26,2.74-1.76,4.84-.45,1.62,1.01,3.35,1.79,3.99,3.98Z"/>
  <ellipse class="cls-3" cx="191.78" cy="267.77" rx="6.46" ry="6.7"/>
  <path class="cls-1" d="M237.02,67.02c-1.77-1.74-13.77-9.96-16.8-11.76-29.05-17.32-62.96-21.72-95.18-11.66-49.51,15.47-84.5,60.1-89.17,113.34-.66,7.49-.73,14.8.16,22.09.45,3.7.53,7.22,1.22,10.75,1.16,5.9,2.51,11.45,4.14,17.27,2.1,7.48,5.52,14.12,8.53,21.27l-16.61,37.19C12.25,236.34.78,203.35,0,166.77c-.08-29.95,7.6-58.71,21.87-84.48C50.93,29.81,105.76-1.68,164.14.07c79.22,2.38,144.82,66.6,152.08,146.39l.49,5.38c.75,8.28.46,16.48.26,24.86-1.34,15.51-4.67,29.96-9.74,44.69-5.62,15.79-13.22,30.14-22.96,44.13l-16.93-37.04c5.8-11.68,9.9-24.03,12.74-37.2.7-2.84.28-5.79,1.62-8.53.09-5.18.31-10.15.98-15.12.25-1.85-.16-3.12-.23-4.88-.93-25.93-9.52-51.15-24.24-72.21-6.53-9.35-13.09-15.56-21.19-23.52Z"/>
</svg>