<?xml version="1.0" encoding="UTF-8"?>
<svg id="_Слой_1" data-name="Слой 1" xmlns="http://www.w3.org/2000/svg" viewBox="0 0 779.59 141.57">
  <defs>
    <style>
      .cls-1 {
        fill: #0070ff;
      }

      .cls-2 {
        fill: #f4f6f9;
      }

      .cls-3 {
        fill: #016ffb;
      }
    </style>
  </defs>
  <g>
    <path class="cls-2" d="M601.36,71.19l-54.67-.08-.55,11.09-16.05.18-.12-26.55c2.97-.09,5.24.26,7.47-.69,3.51-2.87,4.89-7.15,6.07-11.69,2.69-14.19,3.27-28.28,4.2-43.13l61.94-.06.06,55.43,8.47.36-.09,26.08c-5.51.48-10.75.29-16.45.13l-.27-11.06ZM592.29,15.87c-5.13.14-9.03-.53-13.18.17-3.56.61-10.22-.95-15.57-.13l-2.52,25.3c-.5,4.99-1.89,9.37-4.35,14.38l35.67.17-.04-39.88Z"/>
    <path class="cls-2" d="M512.78,51.42c0,10.92-7.76,19.05-18.21,19.55-14.16.68-28.24.58-42.44.03-10.52-.41-18.09-8.57-18.21-19.29-.12-11.1-.32-21.77.2-32.77.5-10.56,8.31-18.19,18.58-18.55,13.93-.49,27.58-.56,41.46.05,10.77.48,18.64,8.8,18.64,19.63v31.35ZM495.28,48.13v-24.83c-.01-4.32-3.21-7.38-7.4-7.38h-29.68c-4.12,0-6.81,3.35-6.79,7.39l.1,25.75c.02,3.76,3.05,6.54,6.66,6.55l29.77.07c4.23,0,7.35-2.69,7.35-7.55Z"/>
    <path class="cls-2" d="M317.22,52.58c-.38,10.16-8.1,17.82-18.1,18.35-14.17.75-28.29.72-42.43.03-10.79-.53-18.3-9.16-18.3-19.93v-31.01c.02-11.18,7.89-19.27,18.9-19.65,13.82-.48,27.46-.53,41.29.04,10.32.43,18.31,8.13,18.62,18.7.34,11.32.44,22.1,0,33.46ZM299.95,48.52l.04-25.28c0-4.02-2.7-7.31-6.81-7.31l-29.76-.04c-4.19,0-7.47,3.1-7.47,7.42l.05,25.08c0,4.36,3.23,7.33,7.42,7.33h29.06c4.18,0,7.45-2.82,7.46-7.19Z"/>
    <path class="cls-2" d="M412.63,33.51c-.57,10.23-7.87,16.92-17.33,17.02l-38.01.38-.11,20.03-17.52.06V.25s52.51.09,52.51.09c5.34,0,10.23,1.58,14.4,4.68,7.46,5.84,6.64,18.4,6.08,28.48ZM395.32,29.43c.18-2.92.18-5.3-.04-7.8-.31-3.4-2.88-5.79-6.28-5.78l-31.74.02v19.78s31.74-.07,31.74-.07c3.43,0,6.08-2.27,6.32-6.14Z"/>
    <polygon class="cls-2" points="179.01 15.91 178.83 70.87 161.47 70.97 161.42 .32 223.09 .24 223.07 15.74 179.01 15.91"/>
  </g>
  <g>
    <path class="cls-1" d="M170.18,97.53v44.04h-10.15v-33.03h-18.93v33.03h-10.15v-44.04h39.23Z"/>
    <path class="cls-1" d="M213.61,97.53c2.89,0,5.24,4.06,5.24,9.08v9.26c0,5.01-2.35,9.08-5.24,9.08h-23.84v16.62h-10.15v-44.04h33.99ZM207.11,108.54h-17.34v5.51h17.26c.79,0,1.53-.94,1.65-2.29.16-1.72-.6-3.21-1.57-3.21Z"/>
    <path class="cls-1" d="M264.66,97.53v44.04h-10.15v-26.83l-15.82,26.83h-11.67v-44.04h10.15v26.83l15.82-26.83h11.67Z"/>
    <path class="cls-1" d="M301.04,117.22l12.31,24.35h-12.65l-8.35-16.51h-8.08v16.51h-10.15v-44.04h10.15v16.52h7.96l10.32-16.52h10.8l-12.31,19.69Z"/>
    <path class="cls-1" d="M361.2,97.53v44.04h-10.15v-33.03h-18.93v23.98c0,5-2.34,9.05-5.23,9.05h-7.69v-11.01h.15c1.44,0,2.61-2.03,2.61-4.53v-28.5h39.23Z"/>
    <path class="cls-1" d="M420.56,106.57v25.96c0,4.99-2.34,9.04-5.22,9.04h-27.2c-2.88,0-5.22-4.05-5.22-9.04v-7.47h-2.15v16.51h-10.15v-44.04h10.15v16.51h2.15v-7.47c0-4.99,2.34-9.04,5.22-9.04h27.2c2.88,0,5.22,4.05,5.22,9.04ZM410.41,113.04c0-2.49-1.17-4.51-2.6-4.51h-12.14c-1.44,0-2.6,2.02-2.6,4.51v13c0,2.49,1.17,4.51,2.6,4.51h12.14c1.44,0,2.6-2.02,2.6-4.51v-13Z"/>
    <path class="cls-1" d="M467.82,97.53v44.04h-10.15v-16.51h-23.85c-2.89,0-5.22-4.05-5.22-9.05v-18.48h10.15v13.3c0,1.77.83,3.21,1.85,3.21h17.08v-16.51h10.15Z"/>
    <path class="cls-1" d="M487.37,108.54v5.51h24.47v10.9h-24.47v5.61h29.08v11.01h-39.23v-44.04h39.23v11.01h-29.08Z"/>
    <path class="cls-1" d="M564.14,97.53v44.04h-10.15v-16.51h-18.93v16.51h-10.15v-44.04h10.15v16.52h18.93v-16.52h10.15Z"/>
    <path class="cls-1" d="M611.22,97.53v44.04h-10.15v-26.83l-15.82,26.83h-11.68v-44.04h10.15v26.83l15.82-26.83h11.67Z"/>
    <path class="cls-1" d="M658.32,97.53v44.04h-10.15v-26.83l-15.82,26.83h-11.67v-44.04h10.15v26.83l15.82-26.83h11.67ZM634.43,83.94h10.15c0,4.85-2.27,8.79-5.07,8.79s-5.07-3.93-5.07-8.79Z"/>
    <path class="cls-3" d="M771.27,117.55l-9.82-.32-40.02.91c-5.33.12-10.28.87-15.7.56-4.21-.25-8.14,1.14-12.34.33-.35-1.11-.83-3.97.08-4.92,3.05-1.15,6.32.17,9.49.24l37.81.8,38.82,1.25c-2.48.76-5.23,1.27-8.32,1.16Z"/>
    <path class="cls-3" d="M64.24,118.32L0,116.62l40.46-1.44,39.63-.94c5.95-.14,9.38-2.41,10.06,2.27.1.71-.16,2.65-1.44,2.61l-24.48-.79Z"/>
  </g>
</svg>