<?xml version="1.0" encoding="UTF-8"?>
<svg id="_Слой_1" data-name="Слой 1" xmlns="http://www.w3.org/2000/svg" viewBox="0 0 779.59 627.14">
  <defs>
    <style>
      .cls-1 {
        fill: #0070ff;
      }

      .cls-2 {
        fill: none;
      }

      .cls-3 {
        fill: #f4f6f9;
      }

      .cls-4 {
        fill: #016ffb;
      }
    </style>
  </defs>
  <g>
    <path d="M601.36,556.76l-54.67-.08-.55,11.09-16.05.18-.12-26.55c2.97-.09,5.24.26,7.47-.69,3.51-2.87,4.89-7.15,6.07-11.69,2.69-14.19,3.27-28.28,4.2-43.13l61.94-.06.06,55.43,8.47.36-.09,26.08c-5.51.48-10.75.29-16.45.13l-.27-11.06ZM592.29,501.44c-5.13.14-9.03-.53-13.18.17-3.56.61-10.22-.95-15.57-.13l-2.52,25.3c-.5,4.99-1.89,9.37-4.35,14.38l35.67.17-.04-39.88Z"/>
    <path d="M512.78,536.99c0,10.92-7.76,19.05-18.21,19.55-14.16.68-28.24.58-42.44.03-10.52-.41-18.09-8.57-18.21-19.29-.12-11.1-.32-21.77.2-32.77.5-10.56,8.31-18.19,18.58-18.55,13.93-.49,27.58-.56,41.46.05,10.77.48,18.64,8.8,18.64,19.63v31.35ZM495.28,533.71v-24.83c-.01-4.32-3.21-7.38-7.4-7.38h-29.68c-4.12,0-6.81,3.35-6.79,7.39l.1,25.75c.02,3.76,3.05,6.54,6.66,6.55l29.77.07c4.23,0,7.35-2.69,7.35-7.55Z"/>
    <path d="M317.22,538.16c-.38,10.16-8.1,17.82-18.1,18.35-14.17.75-28.29.72-42.43.03-10.79-.53-18.3-9.16-18.3-19.93v-31.01c.02-11.18,7.89-19.27,18.9-19.65,13.82-.48,27.46-.53,41.29.04,10.32.43,18.31,8.13,18.62,18.7.34,11.32.44,22.1,0,33.46ZM299.95,534.1l.04-25.28c0-4.02-2.7-7.31-6.81-7.31l-29.76-.04c-4.19,0-7.47,3.1-7.47,7.42l.05,25.08c0,4.36,3.23,7.33,7.42,7.33h29.06c4.18,0,7.45-2.82,7.46-7.19Z"/>
    <path d="M412.63,519.08c-.57,10.23-7.87,16.92-17.33,17.02l-38.01.38-.11,20.03-17.52.06v-70.74s52.51.09,52.51.09c5.34,0,10.23,1.58,14.4,4.68,7.46,5.84,6.64,18.4,6.08,28.48ZM395.32,515c.18-2.92.18-5.3-.04-7.8-.31-3.4-2.88-5.79-6.28-5.78l-31.74.02v19.78s31.74-.07,31.74-.07c3.43,0,6.08-2.27,6.32-6.14Z"/>
    <polygon points="179.01 501.48 178.83 556.45 161.47 556.54 161.42 485.89 223.09 485.82 223.07 501.32 179.01 501.48"/>
  </g>
  <g>
    <path class="cls-2" d="M456.19,240.65c-5.12-9.06-13.75-13.29-23.61-13.24l-87.83.4c-7.88.04-14.9,5.2-18.84,11.96l-24.92,42.77c-1.75,3-9.27,15.97-10.37,17.16-.15.16-.21.04-.6-.65l13.2-28.1,19.75-41.16c2.9-6.04,7.59-10.06,13.44-13.08l.14-26.51,11.89.02.18,16.47c1.29.33,2.5.44,3.65-.08l.08-44.13c3.82.16,7.89-.95,11.34.33,2.57,1.21,4.25,4.66,6.39,6.41,2.05,1.68,1.75,3.79,1.78,6.04l.33,25.57c2.2.55,4.28.54,6.55.2l.03-66.68c2.63-4.3,7.27-7.24,9.23-11.93,1.98-4.74.68-10.73,1.53-15.8.91-5.47,1.02-10.64.85-16.21-.02-.57.59-1.14,1.32-1.21-.59,5.28.46,10.14.84,15.29l1.15,15.22c.16,2.13-.29,3.37,1.64,5.13,3.11,2.82,6.03,5.99,8.57,9.57l.11,45.25c2.59.53,5.47.63,8.29-.49l.31-19.3,15.15.07v42.86c1.38.75,2.9.58,4.29.12l.16-16.21,11.91.03.14,29.72c6.24,3.54,10.5,5.55,13.9,12.7l12.06,25.29,20.57,44.55c.29.62-1.21.85-1.52.7-.39-.19-.11-1.12-.4-1.63l-10.78-18.84c-1.11-1.95-7.5-12.67-7.69-13.05l-2.3-4.47c-1.07-2.08-2.26-3.57-3.29-5.68-2.58-5.26-5.64-10.14-8.61-15.39Z"/>
    <polygon class="cls-4" points="390.97 368.28 369.19 382.25 390.65 314.86 412.12 381.92 390.97 368.28"/>
    <path class="cls-1" d="M514.25,291.16l-42.84-96.36-12.97-28.2-17.63-37.52-29.73-62.2-39.5.07-13.87,27.85-40.19,83.33-1.9,4.01c-17.48,36.96-34.45,73.68-50.71,112.08l34.99,45.4,10.55,13.87,53.73,70.05,26.58,34.81,75.3-99.41,36.79-47.94c4-5.22,7.67-10.06,11.9-14.99,1.19-1.39.21-3.28-.49-4.86ZM449.58,345.9c-1.5,2.06-3.02,3.92-4.63,6.15l-16.23,22.56-37.89,51.34-64.13-86.64,10.15-16.93c4.75-7.92,8.93-15.68,14.56-23.15,2.3-1.08,4.81-3.27,7.71-3.26l63.71.09c3.08,0,6.83,2.6,8.47,5.05,8.31,12.41,15.56,24.98,23.27,37.95l-4.99,6.83ZM454.14,272.6v-9.71c.62.56,1.13,1.25,1.41,2.23.8,2.75.36,5.64-1.41,7.48ZM489.26,299.71c-.39-.19-.11-1.12-.4-1.63l-10.78-18.84c-1.11-1.95-7.5-12.67-7.69-13.05l-2.3-4.47c-1.07-2.08-2.26-3.57-3.29-5.68-2.58-5.26-5.64-10.14-8.61-15.39-5.12-9.06-13.75-13.29-23.61-13.24l-87.83.4c-7.88.04-14.9,5.2-18.84,11.96l-24.92,42.77c-1.75,3-9.27,15.97-10.37,17.16-.15.16-.21.04-.6-.65l13.2-28.1,19.75-41.16c2.9-6.04,7.59-10.06,13.44-13.08l.14-26.51,11.89.02.18,16.47c1.29.33,2.5.44,3.65-.08l.08-44.13c3.82.16,7.89-.95,11.34.33,2.57,1.21,4.25,4.66,6.39,6.41,2.05,1.68,1.75,3.79,1.78,6.04l.33,25.57c2.2.55,4.28.54,6.55.2l.03-66.68c2.63-4.3,7.27-7.24,9.23-11.93,1.98-4.74.68-10.73,1.53-15.8.91-5.47,1.02-10.64.85-16.21-.02-.57.59-1.14,1.32-1.21-.59,5.28.46,10.14.84,15.29l1.15,15.22c.16,2.13-.29,3.37,1.64,5.13,3.11,2.82,6.03,5.99,8.57,9.57l.11,45.25c2.59.53,5.47.63,8.29-.49l.31-19.3,15.15.07v42.86c1.38.75,2.9.58,4.29.12l.16-16.21,11.91.03.14,29.72c6.24,3.54,10.5,5.55,13.9,12.7l12.06,25.29,20.57,44.55c.29.62-1.21.85-1.52.7Z"/>
    <path class="cls-3" d="M364.01,274.28h-11.02s-.11,12.1-.11,12.1c-3.54,1.21-7.17.65-10.93.61-.23-4.61.39-8.52-.31-13.21-4.13-.07-8.06-.58-12.44.31-.11-3.65-.31-7.49,0-11.75l12.2-.23.51-13.17c3.72-.34,7.22-.33,10.72.08l.3,13.11,12.11.23c0,3.53,1.16,10.81-1.03,11.91Z"/>
    <path class="cls-3" d="M441.71,249.54c1.68,4.08,1.34,7.72-1.53,9.92s-6.72,1.7-8.85-1.21c-2.11-2.89-2.21-6.64.75-9.46,2.64-2.52,7.15-1.82,9.63.75Z"/>
    <path class="cls-3" d="M435.13,274.74c3.71-.9,6.83,2.22,7.52,5.26.85,3.8-1.49,7.29-4.95,8s-6.68-1.18-7.61-5c-.75-3.08,1.03-7.29,5.05-8.26Z"/>
    <path class="cls-3" d="M455.55,265.12c1.04,3.54,0,7.33-3.29,8.8-2.84,1.27-6.9,0-8.41-3.09-1.61-3.29-.16-7.16,2.87-9.23,1.84-1.26,2.74-1.76,4.84-.45,1.62,1.01,3.35,1.79,3.99,3.98Z"/>
    <ellipse class="cls-3" cx="422.97" cy="267.77" rx="6.46" ry="6.7"/>
    <path class="cls-1" d="M468.21,67.02c-1.77-1.74-13.77-9.96-16.8-11.76-29.05-17.32-62.96-21.72-95.18-11.66-49.51,15.47-84.5,60.1-89.17,113.34-.66,7.49-.73,14.8.16,22.09.45,3.7.53,7.22,1.22,10.75,1.16,5.9,2.51,11.45,4.14,17.27,2.1,7.48,5.52,14.12,8.53,21.27l-16.61,37.19c-21.07-29.18-32.54-62.17-33.32-98.75-.08-29.95,7.6-58.71,21.87-84.48C282.13,29.81,336.96-1.68,395.34.07c79.22,2.38,144.82,66.6,152.08,146.39l.49,5.38c.75,8.28.46,16.48.26,24.86-1.34,15.51-4.67,29.96-9.74,44.69-5.62,15.79-13.22,30.14-22.96,44.13l-16.93-37.04c5.8-11.68,9.9-24.03,12.74-37.2.7-2.84.28-5.79,1.62-8.53.09-5.18.31-10.15.98-15.12.25-1.85-.16-3.12-.23-4.88-.93-25.93-9.52-51.15-24.24-72.21-6.53-9.35-13.09-15.56-21.19-23.52Z"/>
  </g>
  <g>
    <path class="cls-1" d="M170.18,583.1v44.04h-10.15v-33.03h-18.93v33.03h-10.15v-44.04h39.23Z"/>
    <path class="cls-1" d="M213.61,583.1c2.89,0,5.24,4.06,5.24,9.08v9.26c0,5.01-2.35,9.08-5.24,9.08h-23.84v16.62h-10.15v-44.04h33.99ZM207.11,594.11h-17.34v5.51h17.26c.79,0,1.53-.94,1.65-2.29.16-1.72-.6-3.21-1.57-3.21Z"/>
    <path class="cls-1" d="M264.66,583.1v44.04h-10.15v-26.83l-15.82,26.83h-11.67v-44.04h10.15v26.83l15.82-26.83h11.67Z"/>
    <path class="cls-1" d="M301.04,602.79l12.31,24.35h-12.65l-8.35-16.51h-8.08v16.51h-10.15v-44.04h10.15v16.52h7.96l10.32-16.52h10.8l-12.31,19.69Z"/>
    <path class="cls-1" d="M361.2,583.1v44.04h-10.15v-33.03h-18.93v23.98c0,5-2.34,9.05-5.23,9.05h-7.69v-11.01h.15c1.44,0,2.61-2.03,2.61-4.53v-28.5h39.23Z"/>
    <path class="cls-1" d="M420.56,592.14v25.96c0,4.99-2.34,9.04-5.22,9.04h-27.2c-2.88,0-5.22-4.05-5.22-9.04v-7.47h-2.15v16.51h-10.15v-44.04h10.15v16.51h2.15v-7.47c0-4.99,2.34-9.04,5.22-9.04h27.2c2.88,0,5.22,4.05,5.22,9.04ZM410.41,598.62c0-2.49-1.17-4.51-2.6-4.51h-12.14c-1.44,0-2.6,2.02-2.6,4.51v13c0,2.49,1.17,4.51,2.6,4.51h12.14c1.44,0,2.6-2.02,2.6-4.51v-13Z"/>
    <path class="cls-1" d="M467.82,583.1v44.04h-10.15v-16.51h-23.85c-2.89,0-5.22-4.05-5.22-9.05v-18.48h10.15v13.3c0,1.77.83,3.21,1.85,3.21h17.08v-16.51h10.15Z"/>
    <path class="cls-1" d="M487.37,594.11v5.51h24.47v10.9h-24.47v5.61h29.08v11.01h-39.23v-44.04h39.23v11.01h-29.08Z"/>
    <path class="cls-1" d="M564.14,583.1v44.04h-10.15v-16.51h-18.93v16.51h-10.15v-44.04h10.15v16.52h18.93v-16.52h10.15Z"/>
    <path class="cls-1" d="M611.22,583.1v44.04h-10.15v-26.83l-15.82,26.83h-11.68v-44.04h10.15v26.83l15.82-26.83h11.67Z"/>
    <path class="cls-1" d="M658.32,583.1v44.04h-10.15v-26.83l-15.82,26.83h-11.67v-44.04h10.15v26.83l15.82-26.83h11.67ZM634.43,569.52h10.15c0,4.85-2.27,8.79-5.07,8.79s-5.07-3.93-5.07-8.79Z"/>
    <path class="cls-4" d="M771.27,603.12l-9.82-.32-40.02.91c-5.33.12-10.28.87-15.7.56-4.21-.25-8.14,1.14-12.34.33-.35-1.11-.83-3.97.08-4.92,3.05-1.15,6.32.17,9.49.24l37.81.8,38.82,1.25c-2.48.76-5.23,1.27-8.32,1.16Z"/>
    <path class="cls-4" d="M64.24,603.9l-64.24-1.71,40.46-1.44,39.63-.94c5.95-.14,9.38-2.41,10.06,2.27.1.71-.16,2.65-1.44,2.61l-24.48-.79Z"/>
  </g>
</svg>